# Blender 3.1.0
# www.blender.org
mtllib plumbob.mtl
o Bob
v 0.000000 1.779080 0.000000
v 0.201020 0.000000 -0.979587
v 0.948857 0.000000 -0.315705
v 0.747837 0.000000 0.663882
v -0.201020 0.000000 0.979587
v -0.948857 0.000000 0.315705
v -0.747837 0.000000 -0.663882
v 0.000000 -1.779080 0.000000
vn -0.5969 0.4377 0.6724
vn -0.8808 0.4377 -0.1807
vn -0.2839 0.4377 -0.8531
vn 0.2839 0.4377 0.8531
vn 0.8808 0.4377 0.1807
vn 0.5969 0.4377 -0.6724
vn -0.5969 -0.4377 0.6724
vn -0.8808 -0.4377 -0.1807
vn -0.2839 -0.4377 -0.8531
vn 0.2839 -0.4377 0.8531
vn 0.8808 -0.4377 0.1807
vn 0.5969 -0.4377 -0.6724
vt 0.000000 0.000000
vt 0.000000 0.000000
vt 0.000000 0.000000
vt 0.000000 0.000000
vt 0.000000 0.000000
vt 0.000000 0.000000
vt 0.000000 0.000000
vt 0.000000 0.000000
s 0
usemtl G_Bob
f 5/5/1 1/1/1 6/6/1
f 6/6/2 1/1/2 7/7/2
f 2/2/3 7/7/3 1/1/3
f 5/5/4 4/4/4 1/1/4
f 4/4/5 3/3/5 1/1/5
f 3/3/6 2/2/6 1/1/6
f 5/5/7 6/6/7 8/8/7
f 6/6/8 7/7/8 8/8/8
f 2/2/9 8/8/9 7/7/9
f 5/5/10 8/8/10 4/4/10
f 4/4/11 8/8/11 3/3/11
f 3/3/12 8/8/12 2/2/12
