# Blender 3.1.0
# www.blender.org
o Teapot
v 1.065000 2.400000 1.065000
v 0.996219 2.498437 0.996219
v 0.000000 2.498437 1.403125
v 0.000000 2.400000 1.500000
v 0.994000 2.400000 0.994000
v 0.000000 2.400000 1.400000
v 1.500000 2.400000 0.000000
v 1.403125 2.498437 0.000000
v 1.400000 2.400000 0.000000
v -1.065000 2.400000 1.065000
v -0.996219 2.498437 0.996219
v -1.403125 2.498437 0.000000
v -1.500000 2.400000 0.000000
v -0.994000 2.400000 0.994000
v -1.400000 2.400000 0.000000
v -1.065000 2.400000 -1.065000
v -0.996219 2.498437 -0.996219
v 0.000000 2.498437 -1.403125
v 0.000000 2.400000 -1.500000
v -0.994000 2.400000 -0.994000
v 0.000000 2.400000 -1.400000
v 1.065000 2.400000 -1.065000
v 0.996219 2.498437 -0.996219
v 0.994000 2.400000 -0.994000
v 1.420000 0.900000 1.420000
v 1.309063 1.621875 1.309063
v 0.000000 1.621875 1.843750
v 0.000000 0.900000 2.000000
v 2.000000 0.900000 0.000000
v 1.843750 1.621875 0.000000
v -1.420000 0.900000 1.420000
v -1.309063 1.621875 1.309063
v -1.843750 1.621875 0.000000
v -2.000000 0.900000 0.000000
v -1.420000 0.900000 -1.420000
v -1.309063 1.621875 -1.309063
v 0.000000 1.621875 -1.843750
v 0.000000 0.900000 -2.000000
v 1.420000 0.900000 -1.420000
v 1.309063 1.621875 -1.309063
v 1.065000 0.150000 1.065000
v 1.242500 0.384375 1.242500
v 0.000000 0.384375 1.750000
v 0.000000 0.150000 1.500000
v 1.500000 0.150000 0.000000
v 1.750000 0.384375 0.000000
v -1.065000 0.150000 1.065000
v -1.242500 0.384375 1.242500
v -1.750000 0.384375 0.000000
v -1.500000 0.150000 0.000000
v -1.065000 0.150000 -1.065000
v -1.242500 0.384375 -1.242500
v 0.000000 0.384375 -1.750000
v 0.000000 0.150000 -1.500000
v 1.065000 0.150000 -1.065000
v 1.242500 0.384375 -1.242500
v -2.850000 1.800000 0.225000
v -2.518750 2.095313 0.225000
v -2.625000 2.193750 0.000000
v -3.000000 1.800000 0.000000
v -1.550000 2.137500 0.225000
v -1.500000 2.250000 0.000000
v -2.700000 1.800000 0.000000
v -2.412500 1.996875 0.000000
v -1.600000 2.025000 0.000000
v -2.850000 1.800000 -0.225000
v -2.518750 2.095313 -0.225000
v -1.550000 2.137500 -0.225000
v -1.950000 0.750000 0.225000
v -2.634375 1.253906 0.225000
v -2.731250 1.157813 0.000000
v -1.900000 0.600000 0.000000
v -2.537500 1.350000 0.000000
v -1.950000 0.750000 -0.225000
v -2.634375 1.253906 -0.225000
v 3.000000 2.400000 0.187500
v 2.537500 1.621875 0.341250
v 2.687500 1.443750 0.000000
v 3.300000 2.400000 0.000000
v 1.700000 1.012500 0.495000
v 1.700000 0.600000 0.000000
v 2.700000 2.400000 0.000000
v 2.387500 1.800000 0.000000
v 1.700000 1.425000 0.000000
v 3.000000 2.400000 -0.187500
v 2.537500 1.621875 -0.341250
v 1.700000 1.012500 -0.495000
v 3.000000 2.400000 0.112500
v 3.126563 2.466797 0.150000
v 3.428125 2.477344 0.000000
v 3.200000 2.400000 0.000000
v 2.800000 2.400000 0.000000
v 2.825000 2.456250 0.000000
v 3.000000 2.400000 -0.112500
v 3.126562 2.466797 -0.150000
v 0.142000 2.700000 0.142000
v 0.231031 2.981250 0.231031
v 0.000000 2.981250 0.325000
v 0.000000 2.700000 0.200000
v 0.000000 3.150000 0.000001
v 0.200000 2.700000 0.000000
v 0.325000 2.981250 0.000000
v -0.142000 2.700000 0.142000
v -0.231031 2.981250 0.231031
v -0.325000 2.981250 0.000000
v -0.200000 2.700000 0.000000
v -0.142000 2.700000 -0.142000
v -0.231031 2.981250 -0.231031
v 0.000000 2.981250 -0.325000
v 0.000000 2.700000 -0.200000
v 0.142000 2.700000 -0.142000
v 0.231031 2.981250 -0.231031
v 0.923000 2.400000 0.923000
v 0.585750 2.550000 0.585750
v 0.000000 2.550000 0.825000
v 0.000000 2.400000 1.300000
v 1.300000 2.400000 0.000000
v 0.825000 2.550000 0.000000
v -0.923000 2.400000 0.923000
v -0.585750 2.550000 0.585750
v -0.825000 2.550000 0.000000
v -1.300000 2.400000 0.000000
v -0.923000 2.400000 -0.923000
v -0.585750 2.550000 -0.585750
v 0.000000 2.550000 -0.825000
v 0.000000 2.400000 -1.300000
v 0.923000 2.400000 -0.923000
v 0.585750 2.550000 -0.585750
v 0.911906 0.046875 -0.911906
v 0.000000 0.046875 -1.284375
v 0.000000 0.000000 0.000000
v 1.284375 0.046875 0.000000
v -0.911906 0.046875 -0.911906
v -1.284375 0.046875 0.000000
v -0.911906 0.046875 0.911906
v 0.000000 0.046875 1.284375
v 0.911906 0.046875 0.911906
vn 0.2795 0.6735 0.6843
vn -0.3780 0.0294 -0.9254
vn 0.6843 0.6735 0.2795
vn -0.9254 0.0294 -0.3780
vn -0.6843 0.6735 0.2795
vn 0.9254 0.0294 -0.3780
vn -0.2795 0.6735 0.6843
vn 0.3780 0.0294 -0.9254
vn -0.2795 0.6735 -0.6843
vn 0.3780 0.0294 0.9254
vn -0.6843 0.6735 -0.2795
vn 0.9254 0.0294 0.3780
vn 0.6843 0.6735 -0.2795
vn -0.9254 0.0294 0.3780
vn 0.2795 0.6735 -0.6843
vn -0.3780 0.0294 0.9254
vn 0.3708 0.1965 0.9077
vn 0.3500 0.3785 0.8569
vn 0.9077 0.1965 0.3708
vn 0.8569 0.3785 0.3500
vn -0.9077 0.1965 0.3708
vn -0.8569 0.3785 0.3500
vn -0.3708 0.1965 0.9077
vn -0.3500 0.3785 0.8569
vn -0.3708 0.1965 -0.9077
vn -0.3500 0.3785 -0.8569
vn -0.9077 0.1965 -0.3708
vn -0.8569 0.3785 -0.3500
vn 0.9077 0.1965 -0.3708
vn 0.8569 0.3785 -0.3500
vn 0.3708 0.1965 -0.9077
vn 0.3500 0.3785 -0.8569
vn 0.2691 -0.7026 0.6587
vn 0.3450 -0.4095 0.8446
vn 0.6587 -0.7026 0.2691
vn 0.8446 -0.4095 0.3450
vn -0.6587 -0.7026 0.2691
vn -0.8446 -0.4095 0.3450
vn -0.2691 -0.7026 0.6587
vn -0.3450 -0.4095 0.8446
vn -0.2691 -0.7026 -0.6587
vn -0.3450 -0.4095 -0.8446
vn -0.6587 -0.7026 -0.2691
vn -0.8446 -0.4095 -0.3450
vn 0.6587 -0.7026 -0.2691
vn 0.8446 -0.4095 -0.3450
vn 0.2691 -0.7026 -0.6587
vn 0.3450 -0.4095 -0.8446
vn -0.6279 0.6243 0.4647
vn -0.5915 0.6274 0.5064
vn -0.6521 0.6211 0.4347
vn -0.0446 0.9060 0.4210
vn -0.0402 0.8990 0.4361
vn -0.0454 0.9072 0.4183
vn 0.5663 -0.6905 0.4500
vn 0.5314 -0.6951 0.4842
vn 0.6083 -0.6823 0.4055
vn 0.0383 -0.9068 0.4198
vn 0.0328 -0.8992 0.4363
vn 0.0396 -0.9084 0.4161
vn 0.5314 -0.6951 -0.4842
vn 0.5663 -0.6905 -0.4500
vn 0.6083 -0.6823 -0.4055
vn 0.0328 -0.8992 -0.4363
vn 0.0383 -0.9068 -0.4198
vn 0.0396 -0.9084 -0.4161
vn -0.5915 0.6274 -0.5064
vn -0.6279 0.6243 -0.4647
vn -0.6521 0.6211 -0.4347
vn -0.0402 0.8990 -0.4361
vn -0.0446 0.9060 -0.4210
vn -0.0454 0.9072 -0.4183
vn -0.5121 -0.7536 0.4122
vn -0.5100 -0.7052 0.4926
vn -0.5119 -0.7629 0.3948
vn -0.7917 -0.3272 0.5160
vn -0.8050 -0.3232 0.4975
vn -0.8125 -0.3208 0.4868
vn 0.5506 0.7326 0.4002
vn 0.5508 0.6775 0.4873
vn 0.5495 0.7464 0.3754
vn 0.8087 0.3123 0.4985
vn 0.8023 0.2987 0.5168
vn 0.8125 0.3208 0.4868
vn 0.5508 0.6775 -0.4873
vn 0.5506 0.7326 -0.4002
vn 0.5495 0.7464 -0.3754
vn 0.8023 0.2987 -0.5168
vn 0.8087 0.3123 -0.4985
vn 0.8125 0.3208 -0.4868
vn -0.5100 -0.7052 -0.4926
vn -0.5121 -0.7536 -0.4122
vn -0.5119 -0.7629 -0.3948
vn -0.8050 -0.3232 -0.4975
vn -0.7917 -0.3272 -0.5160
vn -0.8125 -0.3208 -0.4868
vn 0.5609 -0.3320 0.7584
vn 0.7229 -0.3527 0.5941
vn 0.5019 -0.3215 0.8030
vn 0.5493 -0.6372 0.5407
vn 0.5505 -0.6243 0.5543
vn 0.5512 -0.6154 0.5635
vn -0.5499 0.4291 0.7166
vn -0.6743 0.4101 0.6141
vn -0.4773 0.4346 0.7637
vn -0.4025 0.7095 0.5785
vn -0.4004 0.7192 0.5678
vn -0.3981 0.7298 0.5559
vn -0.6743 0.4101 -0.6141
vn -0.5499 0.4291 -0.7166
vn -0.4773 0.4346 -0.7637
vn -0.4004 0.7192 -0.5678
vn -0.4025 0.7095 -0.5785
vn -0.3981 0.7298 -0.5559
vn 0.7229 -0.3527 -0.5941
vn 0.5609 -0.3320 -0.7584
vn 0.5019 -0.3215 -0.8030
vn 0.5505 -0.6243 -0.5543
vn 0.5493 -0.6372 -0.5407
vn 0.5512 -0.6154 -0.5635
vn -0.2810 0.8180 -0.5019
vn -0.2792 0.8190 -0.5014
vn -0.2825 0.8173 -0.5023
vn 0.4548 -0.4897 0.7439
vn 0.3834 -0.5935 0.7076
vn 0.3693 -0.6118 0.6995
vn 0.4715 -0.2337 -0.8503
vn 0.4338 -0.3285 -0.8390
vn 0.4790 -0.2129 -0.8516
vn -0.3326 0.7718 0.5420
vn -0.2901 0.8078 0.5131
vn -0.2804 0.8155 0.5063
vn 0.4338 -0.3285 0.8390
vn 0.4715 -0.2337 0.8503
vn 0.4790 -0.2129 0.8516
vn -0.2901 0.8078 -0.5131
vn -0.3326 0.7718 -0.5420
vn -0.2804 0.8155 -0.5063
vn -0.2792 0.8190 0.5014
vn -0.2810 0.8180 0.5019
vn -0.2825 0.8173 0.5023
vn 0.3834 -0.5935 -0.7076
vn 0.4548 -0.4897 -0.7439
vn 0.3693 -0.6118 -0.6995
vn 0.3491 -0.3809 0.8562
vn 0.3487 -0.3811 0.8563
vn 0.3497 -0.3805 0.8561
vn 0.1842 0.8723 0.4529
vn 0.8563 -0.3811 0.3487
vn 0.8562 -0.3809 0.3491
vn 0.8561 -0.3805 0.3497
vn 0.4529 0.8723 0.1842
vn -0.8562 -0.3809 0.3491
vn -0.8563 -0.3811 0.3487
vn -0.8561 -0.3805 0.3497
vn -0.4529 0.8723 0.1842
vn -0.3487 -0.3811 0.8563
vn -0.3491 -0.3809 0.8562
vn -0.3497 -0.3805 0.8561
vn -0.1842 0.8723 0.4529
vn -0.3491 -0.3809 -0.8562
vn -0.3487 -0.3811 -0.8563
vn -0.3497 -0.3805 -0.8561
vn -0.1842 0.8723 -0.4529
vn -0.8563 -0.3811 -0.3487
vn -0.8562 -0.3809 -0.3491
vn -0.8561 -0.3805 -0.3497
vn -0.4529 0.8723 -0.1842
vn 0.8562 -0.3809 -0.3491
vn 0.8563 -0.3811 -0.3487
vn 0.8561 -0.3805 -0.3497
vn 0.4529 0.8723 -0.1842
vn 0.3487 -0.3811 -0.8563
vn 0.3491 -0.3809 -0.8562
vn 0.3497 -0.3805 -0.8561
vn 0.1842 0.8723 -0.4529
vn 0.1221 0.9465 0.2989
vn 0.0949 0.9680 0.2323
vn 0.2989 0.9465 0.1221
vn 0.2323 0.9680 0.0949
vn -0.2989 0.9465 0.1221
vn -0.2323 0.9680 0.0949
vn -0.1221 0.9465 0.2989
vn -0.0949 0.9680 0.2323
vn -0.1221 0.9465 -0.2989
vn -0.0949 0.9680 -0.2323
vn -0.2989 0.9465 -0.1221
vn -0.2323 0.9680 -0.0949
vn 0.2989 0.9465 -0.1221
vn 0.2323 0.9680 -0.0949
vn 0.1221 0.9465 -0.2989
vn 0.0949 0.9680 -0.2323
vn 0.1736 -0.8884 -0.4249
vn 0.0149 -0.9992 -0.0365
vn 0.4249 -0.8884 -0.1736
vn 0.0365 -0.9992 -0.0149
vn -0.4249 -0.8884 -0.1736
vn -0.0365 -0.9992 -0.0149
vn -0.1736 -0.8884 -0.4249
vn -0.0149 -0.9992 -0.0365
vn -0.1736 -0.8884 0.4249
vn -0.0149 -0.9992 0.0365
vn -0.4249 -0.8884 0.1736
vn -0.0365 -0.9992 0.0149
vn 0.4249 -0.8884 0.1736
vn 0.0365 -0.9992 0.0149
vn 0.1736 -0.8884 0.4249
vn 0.0149 -0.9992 0.0365
vn -0.5603 0.6285 0.5395
vn -0.0391 0.8972 0.4399
vn 0.4785 -0.6988 0.5317
vn 0.0310 -0.8967 0.4415
vn 0.4785 -0.6988 -0.5317
vn 0.0310 -0.8967 -0.4415
vn -0.5603 0.6285 -0.5395
vn -0.0391 0.8972 -0.4399
vn -0.5086 -0.6908 0.5140
vn -0.7858 -0.3288 0.5239
vn 0.5495 0.6564 0.5169
vn 0.7969 0.2878 0.5312
vn 0.5495 0.6564 -0.5169
vn 0.7969 0.2878 -0.5312
vn -0.5086 -0.6908 -0.5140
vn -0.7858 -0.3288 -0.5239
vn 0.7730 -0.3556 0.5254
vn 0.5487 -0.6422 0.5352
vn -0.7501 0.3907 0.5336
vn -0.4038 0.7028 0.5857
vn -0.7501 0.3907 -0.5336
vn -0.4038 0.7028 -0.5857
vn 0.7730 -0.3556 -0.5254
vn 0.5487 -0.6422 -0.5352
vn -0.2779 0.8196 -0.5010
vn 0.4687 -0.4670 0.7498
vn 0.4281 -0.3415 -0.8367
vn -0.3430 0.7623 0.5488
vn 0.4281 -0.3415 0.8367
vn -0.3430 0.7623 -0.5488
vn -0.2779 0.8196 0.5010
vn 0.4687 -0.4670 -0.7498
vn 0.3483 -0.3813 0.8563
vn 0.8563 -0.3813 0.3483
vn -0.8563 -0.3813 0.3483
vn -0.3483 -0.3813 0.8563
vn -0.3483 -0.3813 -0.8563
vn -0.8563 -0.3813 -0.3483
vn 0.8563 -0.3813 -0.3483
vn 0.3483 -0.3813 -0.8563
s 1
f 2//1 4//1 1//1
f 5//2 3//2 2//2
f 7//3 2//3 1//3
f 8//4 5//4 2//4
f 11//5 13//5 10//5
f 14//6 12//6 11//6
f 4//7 11//7 10//7
f 3//8 14//8 11//8
f 17//9 19//9 16//9
f 20//10 18//10 17//10
f 13//11 17//11 16//11
f 12//12 20//12 17//12
f 23//13 7//13 22//13
f 24//14 8//14 23//14
f 19//15 23//15 22//15
f 18//16 24//16 23//16
f 26//17 28//17 25//17
f 1//18 27//18 26//18
f 29//19 26//19 25//19
f 30//20 1//20 26//20
f 32//21 34//21 31//21
f 10//22 33//22 32//22
f 28//23 32//23 31//23
f 27//24 10//24 32//24
f 36//25 38//25 35//25
f 16//26 37//26 36//26
f 34//27 36//27 35//27
f 33//28 16//28 36//28
f 40//29 29//29 39//29
f 22//30 30//30 40//30
f 38//31 40//31 39//31
f 37//32 22//32 40//32
f 41//33 43//33 44//33
f 42//34 28//34 43//34
f 46//35 41//35 45//35
f 29//36 42//36 46//36
f 47//37 49//37 50//37
f 48//38 34//38 49//38
f 43//39 47//39 44//39
f 28//40 48//40 43//40
f 51//41 53//41 54//41
f 52//42 38//42 53//42
f 49//43 51//43 50//43
f 34//44 52//44 49//44
f 55//45 46//45 45//45
f 56//46 29//46 46//46
f 53//47 55//47 54//47
f 38//48 56//48 53//48
f 57//49 59//50 60//51
f 58//52 62//53 59//54
f 63//55 58//56 57//57
f 64//58 61//59 58//60
f 67//61 63//62 66//63
f 68//64 64//65 67//66
f 59//67 66//68 60//69
f 62//70 67//71 59//72
f 69//73 71//74 72//75
f 57//76 71//77 70//78
f 34//79 70//80 69//81
f 73//82 57//83 70//84
f 75//85 34//86 74//87
f 66//88 73//89 75//90
f 71//91 74//92 72//93
f 71//94 66//95 75//96
f 76//97 78//98 79//99
f 80//100 78//101 77//102
f 82//103 77//104 76//105
f 84//106 77//107 83//108
f 86//109 82//110 85//111
f 86//112 84//113 83//114
f 78//115 85//116 79//117
f 78//118 87//119 86//120
f 89//121 91//122 88//123
f 89//124 79//125 90//126
f 93//127 88//128 92//129
f 93//130 76//131 89//132
f 94//133 93//134 92//135
f 85//136 93//137 95//138
f 91//139 95//140 94//141
f 79//142 95//143 90//144
f 96//145 98//146 99//147
f 97//148 100//148 98//148
f 102//149 96//150 101//151
f 102//152 100//152 97//152
f 103//153 105//154 106//155
f 104//156 100//156 105//156
f 98//157 103//158 99//159
f 98//160 100//160 104//160
f 107//161 109//162 110//163
f 108//164 100//164 109//164
f 105//165 107//166 106//167
f 105//168 100//168 108//168
f 111//169 102//170 101//171
f 112//172 100//172 102//172
f 109//173 111//174 110//175
f 109//176 100//176 112//176
f 114//177 116//177 113//177
f 96//178 115//178 114//178
f 117//179 114//179 113//179
f 118//180 96//180 114//180
f 120//181 122//181 119//181
f 103//182 121//182 120//182
f 116//183 120//183 119//183
f 115//184 103//184 120//184
f 124//185 126//185 123//185
f 107//186 125//186 124//186
f 122//187 124//187 123//187
f 121//188 107//188 124//188
f 128//189 117//189 127//189
f 111//190 118//190 128//190
f 126//191 128//191 127//191
f 125//192 111//192 128//192
f 129//193 54//193 55//193
f 129//194 131//194 130//194
f 45//195 129//195 55//195
f 132//196 131//196 129//196
f 133//197 50//197 51//197
f 133//198 131//198 134//198
f 54//199 133//199 51//199
f 130//200 131//200 133//200
f 135//201 44//201 47//201
f 135//202 131//202 136//202
f 50//203 135//203 47//203
f 134//204 131//204 135//204
f 137//205 45//205 41//205
f 137//206 131//206 132//206
f 44//207 137//207 41//207
f 136//208 131//208 137//208
f 2//1 3//1 4//1
f 5//2 6//2 3//2
f 7//3 8//3 2//3
f 8//4 9//4 5//4
f 11//5 12//5 13//5
f 14//6 15//6 12//6
f 4//7 3//7 11//7
f 3//8 6//8 14//8
f 17//9 18//9 19//9
f 20//10 21//10 18//10
f 13//11 12//11 17//11
f 12//12 15//12 20//12
f 23//13 8//13 7//13
f 24//14 9//14 8//14
f 19//15 18//15 23//15
f 18//16 21//16 24//16
f 26//17 27//17 28//17
f 1//18 4//18 27//18
f 29//19 30//19 26//19
f 30//20 7//20 1//20
f 32//21 33//21 34//21
f 10//22 13//22 33//22
f 28//23 27//23 32//23
f 27//24 4//24 10//24
f 36//25 37//25 38//25
f 16//26 19//26 37//26
f 34//27 33//27 36//27
f 33//28 13//28 16//28
f 40//29 30//29 29//29
f 22//30 7//30 30//30
f 38//31 37//31 40//31
f 37//32 19//32 22//32
f 41//33 42//33 43//33
f 42//34 25//34 28//34
f 46//35 42//35 41//35
f 29//36 25//36 42//36
f 47//37 48//37 49//37
f 48//38 31//38 34//38
f 43//39 48//39 47//39
f 28//40 31//40 48//40
f 51//41 52//41 53//41
f 52//42 35//42 38//42
f 49//43 52//43 51//43
f 34//44 35//44 52//44
f 55//45 56//45 46//45
f 56//46 39//46 29//46
f 53//47 56//47 55//47
f 38//48 39//48 56//48
f 57//49 58//209 59//50
f 58//52 61//210 62//53
f 63//55 64//211 58//56
f 64//58 65//212 61//59
f 67//61 64//213 63//62
f 68//64 65//214 64//65
f 59//67 67//215 66//68
f 62//70 68//216 67//71
f 69//73 70//217 71//74
f 57//76 60//218 71//77
f 34//79 73//219 70//80
f 73//82 63//220 57//83
f 75//85 73//221 34//86
f 66//88 63//222 73//89
f 71//91 75//223 74//92
f 71//94 60//224 66//95
f 76//97 77//225 78//98
f 80//100 81//226 78//101
f 82//103 83//227 77//104
f 84//106 80//228 77//107
f 86//109 83//229 82//110
f 86//112 87//230 84//113
f 78//115 86//231 85//116
f 78//118 81//232 87//119
f 89//121 90//233 91//122
f 89//124 76//234 79//125
f 93//127 89//235 88//128
f 93//130 82//236 76//131
f 94//133 95//237 93//134
f 85//136 82//238 93//137
f 91//139 90//239 95//140
f 79//142 85//240 95//143
f 96//145 97//241 98//146
f 102//149 97//242 96//150
f 103//153 104//243 105//154
f 98//157 104//244 103//158
f 107//161 108//245 109//162
f 105//165 108//246 107//166
f 111//169 112//247 102//170
f 109//173 112//248 111//174
f 114//177 115//177 116//177
f 96//178 99//178 115//178
f 117//179 118//179 114//179
f 118//180 101//180 96//180
f 120//181 121//181 122//181
f 103//182 106//182 121//182
f 116//183 115//183 120//183
f 115//184 99//184 103//184
f 124//185 125//185 126//185
f 107//186 110//186 125//186
f 122//187 121//187 124//187
f 121//188 106//188 107//188
f 128//189 118//189 117//189
f 111//190 101//190 118//190
f 126//191 125//191 128//191
f 125//192 110//192 111//192
f 129//193 130//193 54//193
f 45//195 132//195 129//195
f 133//197 134//197 50//197
f 54//199 130//199 133//199
f 135//201 136//201 44//201
f 50//203 134//203 135//203
f 137//205 132//205 45//205
f 44//207 136//207 137//207
